<svg width="100%" height="100%" viewBox="0 0 102 29" fill="none" xmlns="http://www.w3.org/2000/svg"><path fill-rule="evenodd" clip-rule="evenodd" d="M52.1181 8.78609V8.9762H55.1079H56.2772H57.935V8.78609C57.935 3.43581 60.898 0.312554 67.1502 0.692776V5.49988C64.5134 5.30977 62.9912 6.15169 62.9912 8.78609V8.9762H67.1502V13.7833H62.9912V28.3404H57.935V13.7833H56.2772H55.1079H52.1181V28.3404H47.062V13.7833H44.2349V8.9762H47.062V8.78609C47.062 3.43581 50.025 0.312554 56.2772 0.692776V5.49988C53.6676 5.30977 52.1181 6.15169 52.1181 8.78609ZM19.362 8.81277C19.362 11.1484 18.3835 12.9681 16.7797 14.2445C18.9815 15.4938 20.395 17.6394 20.4493 20.4367C20.4493 25.0809 16.6437 28.2856 11.8866 28.2856H0.225098V1.18115H11.0168C15.6651 1.18115 19.362 4.27725 19.362 8.81277ZM13.9798 9.19299C13.9798 7.48199 12.7837 6.20553 11.044 6.20553H5.63453V12.1805H11.044C12.7293 12.1805 13.9798 10.904 13.9798 9.19299ZM5.63453 23.3156H11.8595C13.708 23.3156 15.0399 21.9576 15.0399 20.1108C15.0399 18.2912 13.708 16.9332 11.8595 16.9332H5.63453V23.3156ZM36.2156 19.4044V8.94824H41.2445V28.3124H36.1884V26.1397C35.0467 27.8779 33.008 28.8556 30.3712 28.8556C26.185 28.8556 22.9502 26.004 22.9502 20.8438V8.94824H28.0062V20.2191C28.0062 22.8535 29.6101 24.2115 31.8935 24.2115C34.3672 24.2115 36.2156 22.7721 36.2156 19.4044ZM73.3208 20.6813H88.1085C88.2172 20.0295 88.2988 19.3777 88.2988 18.6173C88.2988 12.9139 84.1669 8.37842 78.3769 8.37842C72.2063 8.37842 68.02 12.8325 68.02 18.6173C68.02 24.4021 72.1791 28.8561 78.7574 28.8561C82.5359 28.8561 85.4717 27.3352 87.293 24.7008L83.2155 22.3923C82.3728 23.5059 80.7961 24.3206 78.8118 24.3206C76.175 24.3206 74.0547 23.2343 73.3208 20.6813ZM73.2392 16.8248C73.8101 14.3533 75.6586 12.9139 78.3769 12.9139C80.4972 12.9139 82.6174 14.0274 83.2426 16.8248H73.2392ZM95.6113 8.94907V12.2896C96.6171 9.6552 99.0908 8.56885 101.564 8.56885V14.1364C98.9277 13.8105 95.6113 14.9783 95.6113 19.0521V28.3133H90.5552V8.94907H95.6113Z" fill="#231F20"></path></svg>